Patient4_TMGait_0pt4_01_left_17_EMG.mot
version=1
nRows=16
nColumns=33
inDegrees=no
endheader
time	1LAddLong	2LGlutMax	3LGlutMed	4LIliopsoas	5LSemiMemb	6LBicFemLong	7LRecFem	8LVastMed	9LVastLat	10LGasMed	11LTibAnt	12lTibPost	13LPeroneusLong	14LSol	15LExtDigLong	16LFlexDigLong	17RAddLong	18RGlutMax	19RGlutMed	20RIliopsoas	21RSemiMemb	22RBicFemLong	23RRecFem	24RVastMed	25RVastLat	26RGasMed	27RTibAnt	28RTibPost	29RPeroneusLong	30RSol	31RExtDigLong	32RFlexDigLong
21.405	-0.00473	0.075989	0.009613	0.015717	-0.016479	-0.031281	-0.000305	0.007935	0.014801	-0.02533	-0.16449	0.015717	0.075836	-0.007477	-0.029297	0.010986	-0.014496	-0.00412	0.24551	-0.096436	-0.11017	0.071411	-0.20676	-0.077972	-0.071411	-0.003357	-0.048065	-0.10681	-0.010681	-0.32394	0.00351	-0.016632
21.406	0.000153	0.08667	0.008545	-0.006714	-0.033417	-0.014496	-0.00061	-0.003967	0.0177	-0.022736	-0.15457	0.014343	0.052643	0.013428	0.02594	0.001831	-0.012512	-0.011444	0.47836	-0.09964	-0.05661	0.12421	-0.26077	0.07309	0.037231	0.003967	-0.07309	-0.099945	-0.055542	-0.32425	0.00351	-0.014496
21.407	-0.002594	0.042114	0.010986	-0.005341	-0.045013	-0.019073	0.013733	-0.002289	0.019684	-0.018005	-0.050354	0.013885	0.041656	-0.058289	-0.012054	0.000458	-0.034332	-0.052185	0.14114	-0.008392	-0.10681	0.11261	-0.27176	0.10056	0.042572	0.001526	-0.070953	0.040436	-0.04837	-0.32272	0.003204	-0.010834
21.408	0.007629	0.045929	0.011139	-0.005035	0.004272	-0.034332	-0.001526	0.003815	0.028076	-0.006256	-0.074158	0.012207	-0.002289	-0.050507	-0.057373	-0.000153	-0.049133	-0.030823	-0.27145	0.082397	0.005188	0.036163	-0.17746	0.11734	0.033112	0.001221	-0.045471	0.1059	-0.04303	-0.21332	0.005493	-0.009003
21.409	0.018158	0.046387	0.003204	-0.004425	0.050659	-0.016479	0.007477	0.018768	0.014038	-0.004272	-0.06073	0.016327	-0.014496	-0.044556	0.13031	-0.007324	-0.016785	0.006104	-0.23666	0.10574	0.072327	-0.083313	-0.11063	0.1857	0.10178	-0.006409	0.019073	0.047302	-0.029449	0.014038	0.002899	0.003815
21.41	0.005035	0.067749	-0.015259	0.001831	0.045776	-0.018616	-0.005341	0.012054	0.02243	-0.005646	0.090485	0.013885	0.009766	-0.061951	-0.046844	-0.003204	-0.000916	0.061951	0.33173	0.037994	0.043793	-0.006866	-0.14038	0.14893	0.067749	-0.012665	0.083618	0.002594	-0.009918	0.25345	0.003052	-0.00351
21.411	0.004578	0.062408	-0.016022	0.007324	0.027618	-0.021667	-0.01236	-0.008392	0.023499	-0.011902	0.15106	0.003815	0.021057	-0.083771	0.19913	0.004425	-0.002289	0.031281	0.074005	0.059357	-0.083008	0.10086	-0.066071	0.028839	0.010223	-0.007477	0.039673	-0.024414	0.012512	0.14465	-0.001373	-0.008392
21.412	0.000763	0.063324	-0.009766	0.007935	0.018005	-0.019836	-0.017853	-0.000305	0.019379	-0.019073	0.043335	0.009613	0.021057	-0.092468	0.058136	0.005188	0.027466	0.047607	-0.32272	-0.00473	-0.10529	0.067902	-0.043488	0.006256	0.001068	-0.000916	0.001526	-0.0354	-0.021667	0.020142	-0.00061	-0.010223
21.413	0.000305	0.041199	-0.03067	-0.004272	0.008392	-0.015564	0.012665	-0.002136	0.020142	-0.03006	-0.049744	0.014954	0.048676	-0.047913	0.19684	0.004425	0.051575	0.00885	-0.34241	-0.012054	-0.090485	0.086212	0.009155	-0.006866	0.010681	0.004425	-0.009155	-0.034332	-0.031891	0.088043	0.005188	-0.008545
21.414	-0.005341	0.050049	-0.040741	-0.002289	0.004425	0.009613	0.007477	-0.002747	-0.001373	-0.030975	0.005951	0.009308	0.043335	-0.048676	-0.12238	-0.001373	0.063782	0.031433	0.31357	-0.078888	-0.098572	0.051575	0.048523	-0.009308	-0.008698	0.012817	0.039063	-0.044403	-0.1709	0.12146	0.002747	-0.01297
21.415	-0.005646	0.0354	-0.063324	0.003204	-0.005341	-0.007629	-0.016937	0.000153	0.015869	-0.018768	-0.014343	0.00885	0.031891	-0.071716	0.19959	-0.003204	0.029602	0.13092	0.51468	-0.14465	0.046844	-0.048065	0.04715	-0.055695	-0.007935	0.005188	0.07431	-0.040741	-0.18234	0.022888	0.002594	-0.014801
21.416	-0.002289	0.034027	0.014648	-0.002136	-0.000916	-0.035095	-0.04364	0.00412	0.014038	-0.019684	0.035248	0.011597	0.015106	-0.025787	0.33981	-0.00061	-0.033264	0.074921	0.34515	-0.14145	0.17014	0.014496	0.045624	0.019684	-0.023041	-0.011902	0.1207	-0.035706	-0.31021	-0.099182	0.000763	-0.018463
21.417	0.001678	0.060425	0.045166	0.007019	0.015564	-0.036316	-0.040283	0.004272	0.015564	-0.022888	0.081177	0.010986	0.017853	0.092316	0.6488	0.000763	-0.02121	0.067444	0.7016	-0.092316	-0.084534	0.094604	0.13977	0.020599	-0.030975	-0.030212	0.11032	-0.036926	-0.24857	-0.20798	-0.003967	-0.007019
21.418	0.005188	0.029449	-0.02182	0.003052	0.01358	-0.032196	-0.041351	0.004883	0.016022	-0.03067	0.081329	-0.003662	0.057526	0.087128	-0.46478	-0.00061	-0.009155	0.060272	0.20721	0.005493	0.014801	-0.009613	0.15762	-0.011292	0.019531	-0.053406	0.077057	-0.013123	-0.070343	-0.19638	-0.001221	-0.009308
21.419	-0.005341	0.018158	-0.017548	-0.00946	-0.007019	-0.042877	-0.040131	0.002899	0.018768	-0.024109	-0.04425	0.002747	0.044098	0.014343	-0.40832	0.004578	-0.00412	0.053864	0.049591	0.15488	0.036163	0.00473	0.08728	0.049744	0.10941	-0.035095	0.065155	-0.15915	0.1413	0.010223	0.001831	-0.011444
21.42	0.002747	0.024414	0.041046	-0.019379	-0.020447	-0.050964	-0.027008	0.005341	0.010529	-0.005951	-0.10696	-0.000763	0.039063	-0.012207	-0.52246	0.006104	-0.034637	0.050201	0.24811	0.13367	-0.25604	0.16052	0.11093	0.084229	0.10986	-0.063934	0.069275	-0.10757	0.30777	0.10773	0.001831	-0.019531
